<mxfile host="app.diagrams.net" modified="2023-12-02T20:33:43.933Z" agent="Mozilla/5.0 (Windows NT 10.0; Win64; x64) AppleWebKit/537.36 (KHTML, like Gecko) Chrome/118.0.0.0 Safari/537.36 OPR/104.0.0.0" etag="DleGQDpxyiOxi7J-fBBU" version="22.1.5" type="device">
  <diagram name="Страница 1" id="L-gQZka6U81_ra8ebs9R">
    <mxGraphModel dx="961" dy="550" grid="1" gridSize="10" guides="1" tooltips="1" connect="1" arrows="1" fold="1" page="1" pageScale="1" pageWidth="827" pageHeight="1169" math="0" shadow="0">
      <root>
        <mxCell id="0" />
        <mxCell id="1" parent="0" />
        <mxCell id="hEfuXO3asH8lIggXFhz3-1" value="" style="edgeStyle=orthogonalEdgeStyle;rounded=0;orthogonalLoop=1;jettySize=auto;html=1;entryX=0.5;entryY=0;entryDx=0;entryDy=0;" parent="1" source="hEfuXO3asH8lIggXFhz3-2" target="hEfuXO3asH8lIggXFhz3-6" edge="1">
          <mxGeometry relative="1" as="geometry">
            <mxPoint x="500" y="239" as="targetPoint" />
          </mxGeometry>
        </mxCell>
        <mxCell id="hEfuXO3asH8lIggXFhz3-2" value="Начало" style="ellipse;whiteSpace=wrap;html=1;" parent="1" vertex="1">
          <mxGeometry x="465" y="63" width="70" height="26" as="geometry" />
        </mxCell>
        <mxCell id="hEfuXO3asH8lIggXFhz3-16" style="edgeStyle=orthogonalEdgeStyle;rounded=0;orthogonalLoop=1;jettySize=auto;html=1;exitX=1;exitY=0.5;exitDx=0;exitDy=0;entryX=0.5;entryY=0;entryDx=0;entryDy=0;" parent="1" source="hEfuXO3asH8lIggXFhz3-4" target="hEfuXO3asH8lIggXFhz3-30" edge="1">
          <mxGeometry relative="1" as="geometry">
            <mxPoint x="670" y="419" as="targetPoint" />
          </mxGeometry>
        </mxCell>
        <mxCell id="hEfuXO3asH8lIggXFhz3-44" style="edgeStyle=orthogonalEdgeStyle;rounded=0;orthogonalLoop=1;jettySize=auto;html=1;exitX=0;exitY=0.5;exitDx=0;exitDy=0;entryX=0.5;entryY=0;entryDx=0;entryDy=0;" parent="1" source="hEfuXO3asH8lIggXFhz3-4" target="hEfuXO3asH8lIggXFhz3-8" edge="1">
          <mxGeometry relative="1" as="geometry" />
        </mxCell>
        <mxCell id="hEfuXO3asH8lIggXFhz3-4" value="switchGetData = 0" style="rhombus;whiteSpace=wrap;html=1;" parent="1" vertex="1">
          <mxGeometry x="431.25" y="369" width="137.5" height="100" as="geometry" />
        </mxCell>
        <mxCell id="hEfuXO3asH8lIggXFhz3-7" style="edgeStyle=orthogonalEdgeStyle;rounded=0;orthogonalLoop=1;jettySize=auto;html=1;entryX=0.5;entryY=0;entryDx=0;entryDy=0;" parent="1" source="hEfuXO3asH8lIggXFhz3-6" target="hEfuXO3asH8lIggXFhz3-4" edge="1">
          <mxGeometry relative="1" as="geometry" />
        </mxCell>
        <mxCell id="hEfuXO3asH8lIggXFhz3-6" value="&lt;p style=&quot;border-color: var(--border-color); font-family: Consolas; font-size: 13.3333px; margin: 0px;&quot;&gt;&amp;nbsp;startTime = 0&lt;/p&gt;&lt;div style=&quot;border-color: var(--border-color); font-family: Consolas; font-size: 13.3333px; padding: 0px 0px 0px 2px;&quot;&gt;&lt;div style=&quot;border-color: var(--border-color); font-size: 10pt;&quot;&gt;&lt;p style=&quot;border-color: var(--border-color); margin: 0px;&quot;&gt;currentTime = 0&lt;/p&gt;&lt;div style=&quot;border-color: var(--border-color); padding: 0px 0px 0px 2px;&quot;&gt;&lt;div style=&quot;border-color: var(--border-color); font-size: 10pt;&quot;&gt;&lt;p style=&quot;border-color: var(--border-color); margin: 0px;&quot;&gt;outData = 0&lt;/p&gt;&lt;div style=&quot;border-color: var(--border-color); padding: 0px 0px 0px 2px;&quot;&gt;&lt;div style=&quot;border-color: var(--border-color); font-size: 10pt;&quot;&gt;&lt;p style=&quot;border-color: var(--border-color); margin: 0px;&quot;&gt;switchGetData = 0&lt;/p&gt;&lt;/div&gt;&lt;/div&gt;&lt;div style=&quot;border-color: var(--border-color); padding: 0px 0px 0px 2px;&quot;&gt;&lt;div style=&quot;border-color: var(--border-color); font-size: 10pt;&quot;&gt;&lt;p style=&quot;border-color: var(--border-color); margin: 0px;&quot;&gt;TIME_TICK_DELAY_START =&amp;nbsp;400&lt;/p&gt;&lt;p style=&quot;border-color: var(--border-color); margin: 0px;&quot;&gt;sizeBit = 24&lt;/p&gt;&lt;p style=&quot;border-color: var(--border-color); margin: 0px;&quot;&gt;unfilteredOutData&amp;nbsp;= 0&amp;nbsp;&lt;br&gt;&lt;/p&gt;&lt;div style=&quot;padding: 0px 0px 0px 2px;&quot;&gt;&lt;div style=&quot;font-size: 10pt;&quot;&gt;&lt;p style=&quot;margin: 0px;&quot;&gt;summAvr = 0&lt;/p&gt;&lt;p style=&quot;margin: 0px;&quot;&gt;countAvr = 0&lt;/p&gt;&lt;p style=&quot;margin: 0px;&quot;&gt;filteredOutData = 0&lt;/p&gt;&lt;p style=&quot;margin: 0px;&quot;&gt;filterSize = 10&lt;/p&gt;&lt;/div&gt;&lt;/div&gt;&lt;/div&gt;&lt;/div&gt;&lt;/div&gt;&lt;/div&gt;&lt;/div&gt;&lt;/div&gt;" style="rounded=0;whiteSpace=wrap;html=1;" parent="1" vertex="1">
          <mxGeometry x="390" y="119" width="220" height="220" as="geometry" />
        </mxCell>
        <mxCell id="hEfuXO3asH8lIggXFhz3-65" style="edgeStyle=orthogonalEdgeStyle;rounded=0;orthogonalLoop=1;jettySize=auto;html=1;exitX=0;exitY=0.5;exitDx=0;exitDy=0;entryX=0.5;entryY=0;entryDx=0;entryDy=0;" parent="1" source="hEfuXO3asH8lIggXFhz3-8" target="hEfuXO3asH8lIggXFhz3-63" edge="1">
          <mxGeometry relative="1" as="geometry">
            <mxPoint x="190" y="1279" as="targetPoint" />
          </mxGeometry>
        </mxCell>
        <mxCell id="hEfuXO3asH8lIggXFhz3-8" value="&lt;div style=&quot;background-color:#ffffff;padding:0px 0px 0px 2px;&quot;&gt;&lt;div style=&quot;font-family: Consolas; font-size: 10pt;&quot;&gt;&lt;p style=&quot;margin:0;&quot;&gt;startTime = HAL_GetTick()&lt;/p&gt;&lt;p style=&quot;margin:0;&quot;&gt;switchGetData = 1&lt;/p&gt;&lt;/div&gt;&lt;/div&gt;" style="rounded=0;whiteSpace=wrap;html=1;align=center;" parent="1" vertex="1">
          <mxGeometry x="260" y="459" width="190" height="50" as="geometry" />
        </mxCell>
        <mxCell id="hEfuXO3asH8lIggXFhz3-9" value="Получение и фильтрация данных&amp;nbsp;&lt;br&gt;&amp;nbsp;с усилителя HX711" style="text;html=1;strokeColor=#6c8ebf;fillColor=#dae8fc;align=center;verticalAlign=middle;whiteSpace=wrap;rounded=0;" parent="1" vertex="1">
          <mxGeometry x="170" y="70" width="190" height="116" as="geometry" />
        </mxCell>
        <mxCell id="hEfuXO3asH8lIggXFhz3-10" value="HAL_GetTick() - функция получения счетчика тиков процессора&lt;br style=&quot;border-color: var(--border-color);&quot;&gt;&lt;div style=&quot;border-color: var(--border-color); padding: 0px 0px 0px 2px;&quot;&gt;&lt;div style=&quot;border-color: var(--border-color); font-family: Consolas; font-size: 10pt;&quot;&gt;&lt;p style=&quot;border-color: var(--border-color); margin: 0px;&quot;&gt;HAL_GPIO_ReadPin(HX711_DT_GPIO_Port, HX711_DT_Pin) - функция считывания состояния входа процессора&lt;/p&gt;&lt;p style=&quot;border-color: var(--border-color); margin: 0px;&quot;&gt;__NOP() - макрос выполнения пропуска тика процессора&lt;br&gt;&lt;/p&gt;&lt;/div&gt;&lt;/div&gt;" style="text;html=1;strokeColor=#82b366;fillColor=#d5e8d4;align=center;verticalAlign=middle;whiteSpace=wrap;rounded=0;" parent="1" vertex="1">
          <mxGeometry x="651" y="60" width="409" height="66" as="geometry" />
        </mxCell>
        <mxCell id="hEfuXO3asH8lIggXFhz3-22" style="edgeStyle=orthogonalEdgeStyle;rounded=0;orthogonalLoop=1;jettySize=auto;html=1;entryX=0.5;entryY=0;entryDx=0;entryDy=0;" parent="1" source="hEfuXO3asH8lIggXFhz3-23" target="hEfuXO3asH8lIggXFhz3-25" edge="1">
          <mxGeometry relative="1" as="geometry" />
        </mxCell>
        <mxCell id="hEfuXO3asH8lIggXFhz3-66" style="edgeStyle=orthogonalEdgeStyle;rounded=0;orthogonalLoop=1;jettySize=auto;html=1;exitX=0;exitY=0.5;exitDx=0;exitDy=0;entryX=0.5;entryY=0;entryDx=0;entryDy=0;" parent="1" source="hEfuXO3asH8lIggXFhz3-23" target="hEfuXO3asH8lIggXFhz3-63" edge="1">
          <mxGeometry relative="1" as="geometry" />
        </mxCell>
        <mxCell id="hEfuXO3asH8lIggXFhz3-23" value="&lt;div style=&quot;background-color:#ffffff;padding:0px 0px 0px 2px;&quot;&gt;&lt;div style=&quot;font-family: Consolas; font-size: 10pt;&quot;&gt;&lt;div style=&quot;padding: 0px 0px 0px 2px;&quot;&gt;&lt;div style=&quot;font-size: 10pt;&quot;&gt;&lt;p style=&quot;margin:0;&quot;&gt;currentTime = HAL_GetTick()&lt;/p&gt;&lt;/div&gt;&lt;/div&gt;&lt;/div&gt;&lt;/div&gt;" style="rounded=0;whiteSpace=wrap;html=1;align=center;" parent="1" vertex="1">
          <mxGeometry x="307" y="577" width="230" height="40" as="geometry" />
        </mxCell>
        <mxCell id="hEfuXO3asH8lIggXFhz3-24" style="edgeStyle=orthogonalEdgeStyle;rounded=0;orthogonalLoop=1;jettySize=auto;html=1;entryX=0.5;entryY=0;entryDx=0;entryDy=0;" parent="1" source="hEfuXO3asH8lIggXFhz3-25" target="hEfuXO3asH8lIggXFhz3-26" edge="1">
          <mxGeometry relative="1" as="geometry" />
        </mxCell>
        <mxCell id="hEfuXO3asH8lIggXFhz3-25" value="(currentTime -&amp;nbsp;&lt;span style=&quot;border-color: var(--border-color); font-family: Consolas; font-size: 13.3333px; background-color: rgb(212, 212, 212);&quot;&gt;startTime)&lt;/span&gt;&lt;span style=&quot;font-family: Consolas; font-size: 13.3333px; background-color: rgb(255, 255, 255);&quot;&gt;&amp;nbsp;&amp;gt; TIME_TICK_DELAY_START&lt;/span&gt;" style="rhombus;whiteSpace=wrap;html=1;" parent="1" vertex="1">
          <mxGeometry x="290" y="644" width="264" height="97" as="geometry" />
        </mxCell>
        <mxCell id="hEfuXO3asH8lIggXFhz3-67" style="edgeStyle=orthogonalEdgeStyle;rounded=0;orthogonalLoop=1;jettySize=auto;html=1;exitX=0;exitY=0.5;exitDx=0;exitDy=0;entryX=0.5;entryY=0;entryDx=0;entryDy=0;" parent="1" source="hEfuXO3asH8lIggXFhz3-26" target="hEfuXO3asH8lIggXFhz3-63" edge="1">
          <mxGeometry relative="1" as="geometry" />
        </mxCell>
        <mxCell id="hEfuXO3asH8lIggXFhz3-26" value="&lt;div style=&quot;background-color:#ffffff;padding:0px 0px 0px 2px;&quot;&gt;&lt;div style=&quot;font-family: Consolas; font-size: 10pt;&quot;&gt;&lt;p style=&quot;margin:0;&quot;&gt;switchGetData = 2&lt;/p&gt;&lt;/div&gt;&lt;/div&gt;" style="rounded=0;whiteSpace=wrap;html=1;align=center;" parent="1" vertex="1">
          <mxGeometry x="327" y="767" width="190" height="50" as="geometry" />
        </mxCell>
        <mxCell id="hEfuXO3asH8lIggXFhz3-27" value="да" style="text;html=1;align=center;verticalAlign=middle;resizable=0;points=[];autosize=1;strokeColor=none;fillColor=none;fontSize=15;" parent="1" vertex="1">
          <mxGeometry x="420" y="737" width="40" height="30" as="geometry" />
        </mxCell>
        <mxCell id="hEfuXO3asH8lIggXFhz3-28" value="да" style="text;html=1;align=center;verticalAlign=middle;resizable=0;points=[];autosize=1;strokeColor=none;fillColor=none;fontSize=15;" parent="1" vertex="1">
          <mxGeometry x="391.25" y="389" width="40" height="30" as="geometry" />
        </mxCell>
        <mxCell id="hEfuXO3asH8lIggXFhz3-29" value="нет" style="text;html=1;align=center;verticalAlign=middle;resizable=0;points=[];autosize=1;strokeColor=none;fillColor=none;fontSize=15;" parent="1" vertex="1">
          <mxGeometry x="568.75" y="389" width="50" height="30" as="geometry" />
        </mxCell>
        <mxCell id="hEfuXO3asH8lIggXFhz3-37" style="edgeStyle=orthogonalEdgeStyle;rounded=0;orthogonalLoop=1;jettySize=auto;html=1;exitX=1;exitY=0.5;exitDx=0;exitDy=0;entryX=0.5;entryY=0;entryDx=0;entryDy=0;" parent="1" source="hEfuXO3asH8lIggXFhz3-30" target="hEfuXO3asH8lIggXFhz3-34" edge="1">
          <mxGeometry relative="1" as="geometry" />
        </mxCell>
        <mxCell id="hEfuXO3asH8lIggXFhz3-45" style="edgeStyle=orthogonalEdgeStyle;rounded=0;orthogonalLoop=1;jettySize=auto;html=1;exitX=0;exitY=0.5;exitDx=0;exitDy=0;entryX=0.5;entryY=0;entryDx=0;entryDy=0;" parent="1" source="hEfuXO3asH8lIggXFhz3-30" target="hEfuXO3asH8lIggXFhz3-23" edge="1">
          <mxGeometry relative="1" as="geometry" />
        </mxCell>
        <mxCell id="hEfuXO3asH8lIggXFhz3-30" value="switchGetData = 1" style="rhombus;whiteSpace=wrap;html=1;" parent="1" vertex="1">
          <mxGeometry x="540" y="500.5" width="137.5" height="100" as="geometry" />
        </mxCell>
        <mxCell id="hEfuXO3asH8lIggXFhz3-43" style="edgeStyle=orthogonalEdgeStyle;rounded=0;orthogonalLoop=1;jettySize=auto;html=1;exitX=1;exitY=0.5;exitDx=0;exitDy=0;entryX=0.5;entryY=0;entryDx=0;entryDy=0;" parent="1" source="hEfuXO3asH8lIggXFhz3-34" target="hEfuXO3asH8lIggXFhz3-42" edge="1">
          <mxGeometry relative="1" as="geometry" />
        </mxCell>
        <mxCell id="hEfuXO3asH8lIggXFhz3-47" style="edgeStyle=orthogonalEdgeStyle;rounded=0;orthogonalLoop=1;jettySize=auto;html=1;exitX=0;exitY=0.5;exitDx=0;exitDy=0;entryX=0.5;entryY=0;entryDx=0;entryDy=0;" parent="1" source="hEfuXO3asH8lIggXFhz3-34" target="hEfuXO3asH8lIggXFhz3-35" edge="1">
          <mxGeometry relative="1" as="geometry" />
        </mxCell>
        <mxCell id="hEfuXO3asH8lIggXFhz3-34" value="switchGetData = 2" style="rhombus;whiteSpace=wrap;html=1;" parent="1" vertex="1">
          <mxGeometry x="641.6199999999999" y="679" width="137.5" height="100" as="geometry" />
        </mxCell>
        <mxCell id="hEfuXO3asH8lIggXFhz3-41" style="edgeStyle=orthogonalEdgeStyle;rounded=0;orthogonalLoop=1;jettySize=auto;html=1;exitX=0.5;exitY=1;exitDx=0;exitDy=0;entryX=0.5;entryY=0;entryDx=0;entryDy=0;" parent="1" source="hEfuXO3asH8lIggXFhz3-35" target="hEfuXO3asH8lIggXFhz3-40" edge="1">
          <mxGeometry relative="1" as="geometry" />
        </mxCell>
        <mxCell id="hEfuXO3asH8lIggXFhz3-35" value="&lt;div style=&quot;padding: 0px 0px 0px 2px;&quot;&gt;&lt;div style=&quot;font-family: Consolas; font-size: 10pt;&quot;&gt;&lt;div style=&quot;padding: 0px 0px 0px 2px;&quot;&gt;&lt;div style=&quot;font-size: 10pt;&quot;&gt;&lt;div style=&quot;padding: 0px 0px 0px 2px;&quot;&gt;&lt;div style=&quot;font-size: 10pt;&quot;&gt;&lt;p style=&quot;margin: 0px;&quot;&gt;(HAL_GPIO_ReadPin(HX711_DT_GPIO_Port, HX711_DT_Pin)&lt;span style=&quot;font-size: 10pt; background-color: initial;&quot;&gt;) == 0&lt;/span&gt;&lt;/p&gt;&lt;/div&gt;&lt;/div&gt;&lt;/div&gt;&lt;/div&gt;&lt;/div&gt;&lt;/div&gt;" style="rhombus;whiteSpace=wrap;html=1;" parent="1" vertex="1">
          <mxGeometry x="420" y="822" width="363.25" height="127" as="geometry" />
        </mxCell>
        <mxCell id="hEfuXO3asH8lIggXFhz3-38" value="нет" style="text;html=1;align=center;verticalAlign=middle;resizable=0;points=[];autosize=1;strokeColor=none;fillColor=none;fontSize=15;" parent="1" vertex="1">
          <mxGeometry x="680" y="519" width="50" height="30" as="geometry" />
        </mxCell>
        <mxCell id="hEfuXO3asH8lIggXFhz3-39" value="да" style="text;html=1;align=center;verticalAlign=middle;resizable=0;points=[];autosize=1;strokeColor=none;fillColor=none;fontSize=15;" parent="1" vertex="1">
          <mxGeometry x="601.6199999999999" y="699" width="40" height="30" as="geometry" />
        </mxCell>
        <mxCell id="hEfuXO3asH8lIggXFhz3-68" style="edgeStyle=orthogonalEdgeStyle;rounded=0;orthogonalLoop=1;jettySize=auto;html=1;exitX=0;exitY=0.5;exitDx=0;exitDy=0;entryX=0.5;entryY=0;entryDx=0;entryDy=0;" parent="1" source="hEfuXO3asH8lIggXFhz3-40" target="hEfuXO3asH8lIggXFhz3-63" edge="1">
          <mxGeometry relative="1" as="geometry" />
        </mxCell>
        <mxCell id="hEfuXO3asH8lIggXFhz3-40" value="&lt;div style=&quot;background-color:#ffffff;padding:0px 0px 0px 2px;&quot;&gt;&lt;div style=&quot;font-family: Consolas; font-size: 10pt;&quot;&gt;&lt;div style=&quot;padding: 0px 0px 0px 2px;&quot;&gt;&lt;div style=&quot;font-size: 10pt;&quot;&gt;&lt;p style=&quot;margin:0;&quot;&gt;switchGetData = 3&lt;/p&gt;&lt;p style=&quot;margin:0;&quot;&gt;&lt;span style=&quot;font-size: 10pt;&quot;&gt;outData = 0&lt;/span&gt;&lt;/p&gt;&lt;/div&gt;&lt;/div&gt;&lt;/div&gt;&lt;/div&gt;" style="rounded=0;whiteSpace=wrap;html=1;align=center;" parent="1" vertex="1">
          <mxGeometry x="506.6199999999999" y="977" width="190" height="50" as="geometry" />
        </mxCell>
        <mxCell id="hEfuXO3asH8lIggXFhz3-57" style="edgeStyle=orthogonalEdgeStyle;rounded=0;orthogonalLoop=1;jettySize=auto;html=1;exitX=0;exitY=0.5;exitDx=0;exitDy=0;entryX=0.5;entryY=0;entryDx=0;entryDy=0;" parent="1" source="hEfuXO3asH8lIggXFhz3-42" target="hEfuXO3asH8lIggXFhz3-50" edge="1">
          <mxGeometry relative="1" as="geometry" />
        </mxCell>
        <mxCell id="hEfuXO3asH8lIggXFhz3-70" style="edgeStyle=orthogonalEdgeStyle;rounded=0;orthogonalLoop=1;jettySize=auto;html=1;exitX=0.5;exitY=1;exitDx=0;exitDy=0;entryX=0.5;entryY=0;entryDx=0;entryDy=0;" parent="1" source="hEfuXO3asH8lIggXFhz3-42" target="hEfuXO3asH8lIggXFhz3-63" edge="1">
          <mxGeometry relative="1" as="geometry">
            <Array as="points">
              <mxPoint x="930" y="1720" />
              <mxPoint x="219" y="1720" />
              <mxPoint x="219" y="1529" />
            </Array>
          </mxGeometry>
        </mxCell>
        <mxCell id="hEfuXO3asH8lIggXFhz3-42" value="switchGetData = 3" style="rhombus;whiteSpace=wrap;html=1;" parent="1" vertex="1">
          <mxGeometry x="861.1199999999999" y="1001" width="137.5" height="100" as="geometry" />
        </mxCell>
        <mxCell id="hEfuXO3asH8lIggXFhz3-46" value="да" style="text;html=1;align=center;verticalAlign=middle;resizable=0;points=[];autosize=1;strokeColor=none;fillColor=none;fontSize=15;" parent="1" vertex="1">
          <mxGeometry x="500" y="519" width="40" height="30" as="geometry" />
        </mxCell>
        <mxCell id="hEfuXO3asH8lIggXFhz3-48" value="нет" style="text;html=1;align=center;verticalAlign=middle;resizable=0;points=[];autosize=1;strokeColor=none;fillColor=none;fontSize=15;" parent="1" vertex="1">
          <mxGeometry x="779.1199999999999" y="699" width="50" height="30" as="geometry" />
        </mxCell>
        <mxCell id="hEfuXO3asH8lIggXFhz3-49" value="да" style="text;html=1;align=center;verticalAlign=middle;resizable=0;points=[];autosize=1;strokeColor=none;fillColor=none;fontSize=15;" parent="1" vertex="1">
          <mxGeometry x="601.6199999999999" y="949" width="40" height="30" as="geometry" />
        </mxCell>
        <mxCell id="hEfuXO3asH8lIggXFhz3-52" style="edgeStyle=orthogonalEdgeStyle;rounded=0;orthogonalLoop=1;jettySize=auto;html=1;exitX=0.5;exitY=1;exitDx=0;exitDy=0;entryX=0.5;entryY=0;entryDx=0;entryDy=0;" parent="1" source="hEfuXO3asH8lIggXFhz3-50" target="hEfuXO3asH8lIggXFhz3-51" edge="1">
          <mxGeometry relative="1" as="geometry" />
        </mxCell>
        <mxCell id="hEfuXO3asH8lIggXFhz3-54" style="edgeStyle=orthogonalEdgeStyle;rounded=0;orthogonalLoop=1;jettySize=auto;html=1;exitX=1;exitY=0.5;exitDx=0;exitDy=0;entryX=1;entryY=0.5;entryDx=0;entryDy=0;" parent="1" source="hEfuXO3asH8lIggXFhz3-50" target="hEfuXO3asH8lIggXFhz3-53" edge="1">
          <mxGeometry relative="1" as="geometry">
            <Array as="points">
              <mxPoint x="900" y="1116" />
              <mxPoint x="900" y="1386" />
            </Array>
          </mxGeometry>
        </mxCell>
        <mxCell id="hEfuXO3asH8lIggXFhz3-50" value="i = 1; i &amp;lt;&amp;nbsp;sizeBit; i++" style="shape=hexagon;perimeter=hexagonPerimeter2;whiteSpace=wrap;html=1;fixedSize=1;" parent="1" vertex="1">
          <mxGeometry x="521.62" y="1101" width="151" height="30" as="geometry" />
        </mxCell>
        <mxCell id="SgCyWwI_akNR_XTvSB78-1" style="edgeStyle=orthogonalEdgeStyle;rounded=0;orthogonalLoop=1;jettySize=auto;html=1;exitX=0;exitY=0.5;exitDx=0;exitDy=0;entryX=0;entryY=0.5;entryDx=0;entryDy=0;" edge="1" parent="1" source="hEfuXO3asH8lIggXFhz3-51" target="hEfuXO3asH8lIggXFhz3-50">
          <mxGeometry relative="1" as="geometry">
            <Array as="points">
              <mxPoint x="280" y="1231" />
              <mxPoint x="280" y="1116" />
            </Array>
          </mxGeometry>
        </mxCell>
        <mxCell id="hEfuXO3asH8lIggXFhz3-51" value="&lt;div style=&quot;padding: 0px 0px 0px 2px;&quot;&gt;&lt;div style=&quot;font-family: Consolas; font-size: 10pt;&quot;&gt;&lt;div style=&quot;padding: 0px 0px 0px 2px;&quot;&gt;&lt;div style=&quot;font-size: 10pt;&quot;&gt;&lt;div style=&quot;padding: 0px 0px 0px 2px;&quot;&gt;&lt;div style=&quot;font-size: 10pt;&quot;&gt;&lt;p style=&quot;margin: 0px;&quot;&gt;&lt;span style=&quot;font-size: 10pt;&quot;&gt;HAL_GPIO_WritePin(HX711_SCK_GPIO_Port, HX711_SCK_Pin, GPIO_PIN_SET)&lt;/span&gt;&lt;/p&gt;&lt;p style=&quot;margin: 0px;&quot;&gt;&lt;span style=&quot;font-size: 10pt;&quot;&gt;delay_tick_one()&lt;/span&gt;&lt;/p&gt;&lt;p style=&quot;margin: 0px;&quot;&gt;&lt;span style=&quot;font-size: 10pt;&quot;&gt;delay_tick_one()&lt;/span&gt;&lt;/p&gt;&lt;p style=&quot;margin: 0px;&quot;&gt;HAL_GPIO_WritePin(HX711_SCK_GPIO_Port, HX711_SCK_Pin, GPIO_PIN_RESET);&lt;/p&gt;&lt;p style=&quot;margin: 0px;&quot;&gt;outData = (outData &amp;lt;&amp;lt; 1) + ((HAL_GPIO_ReadPin(HX711_DT_GPIO_Port, HX711_DT_Pin)) != 0);&lt;/p&gt;&lt;/div&gt;&lt;/div&gt;&lt;/div&gt;&lt;/div&gt;&lt;/div&gt;&lt;/div&gt;" style="rounded=0;whiteSpace=wrap;html=1;align=center;" parent="1" vertex="1">
          <mxGeometry x="322.12" y="1171" width="550" height="120" as="geometry" />
        </mxCell>
        <mxCell id="hEfuXO3asH8lIggXFhz3-84" style="edgeStyle=orthogonalEdgeStyle;rounded=0;orthogonalLoop=1;jettySize=auto;html=1;exitX=0.5;exitY=1;exitDx=0;exitDy=0;entryX=0.5;entryY=0;entryDx=0;entryDy=0;" parent="1" source="hEfuXO3asH8lIggXFhz3-53" target="hEfuXO3asH8lIggXFhz3-80" edge="1">
          <mxGeometry relative="1" as="geometry" />
        </mxCell>
        <mxCell id="hEfuXO3asH8lIggXFhz3-53" value="&lt;div style=&quot;padding: 0px 0px 0px 2px;&quot;&gt;&lt;div style=&quot;font-family: Consolas; font-size: 10pt;&quot;&gt;&lt;div style=&quot;padding: 0px 0px 0px 2px;&quot;&gt;&lt;div style=&quot;font-size: 10pt;&quot;&gt;&lt;div style=&quot;padding: 0px 0px 0px 2px;&quot;&gt;&lt;div style=&quot;font-size: 10pt;&quot;&gt;&lt;p style=&quot;margin: 0px;&quot;&gt;unfilteredOutData&amp;nbsp;&lt;span style=&quot;font-size: 10pt; background-color: initial;&quot;&gt;= (outData &amp;gt;&amp;gt; 8);&lt;/span&gt;&lt;span style=&quot;font-size: 10pt; background-color: initial;&quot;&gt;&amp;nbsp;&amp;nbsp;&lt;/span&gt;&lt;/p&gt;&lt;p style=&quot;margin: 0px;&quot;&gt;HAL_GPIO_WritePin(HX711_SCK_GPIO_Port, HX711_SCK_Pin, GPIO_PIN_SET);&lt;/p&gt;&lt;p style=&quot;margin: 0px;&quot;&gt;delay_tick_one();&lt;/p&gt;&lt;p style=&quot;margin: 0px;&quot;&gt;delay_tick_one();&lt;/p&gt;&lt;p style=&quot;margin: 0px;&quot;&gt;HAL_GPIO_WritePin(HX711_SCK_GPIO_Port, HX711_SCK_Pin, GPIO_PIN_RESET);&lt;/p&gt;&lt;p style=&quot;margin: 0px;&quot;&gt;switchGetData = 2;&lt;/p&gt;&lt;/div&gt;&lt;/div&gt;&lt;/div&gt;&lt;/div&gt;&lt;/div&gt;&lt;/div&gt;" style="rounded=0;whiteSpace=wrap;html=1;align=center;" parent="1" vertex="1">
          <mxGeometry x="333.12" y="1331" width="528" height="110" as="geometry" />
        </mxCell>
        <mxCell id="hEfuXO3asH8lIggXFhz3-55" value="да" style="text;html=1;align=center;verticalAlign=middle;resizable=0;points=[];autosize=1;strokeColor=none;fillColor=none;fontSize=15;" parent="1" vertex="1">
          <mxGeometry x="596.12" y="1141" width="40" height="30" as="geometry" />
        </mxCell>
        <mxCell id="hEfuXO3asH8lIggXFhz3-56" value="нет" style="text;html=1;align=center;verticalAlign=middle;resizable=0;points=[];autosize=1;strokeColor=none;fillColor=none;fontSize=15;" parent="1" vertex="1">
          <mxGeometry x="672.6199999999999" y="1089" width="50" height="30" as="geometry" />
        </mxCell>
        <mxCell id="hEfuXO3asH8lIggXFhz3-58" value="да" style="text;html=1;align=center;verticalAlign=middle;resizable=0;points=[];autosize=1;strokeColor=none;fillColor=none;fontSize=15;" parent="1" vertex="1">
          <mxGeometry x="783.25" y="1019" width="40" height="30" as="geometry" />
        </mxCell>
        <mxCell id="hEfuXO3asH8lIggXFhz3-62" value="" style="edgeStyle=orthogonalEdgeStyle;rounded=0;orthogonalLoop=1;jettySize=auto;html=1;" parent="1" source="hEfuXO3asH8lIggXFhz3-63" target="hEfuXO3asH8lIggXFhz3-64" edge="1">
          <mxGeometry relative="1" as="geometry" />
        </mxCell>
        <mxCell id="hEfuXO3asH8lIggXFhz3-63" value="Выходное значение:&amp;nbsp;&lt;br&gt;unfilteredOutData&amp;nbsp;&lt;br&gt;filteredOutData&amp;nbsp;" style="shape=parallelogram;perimeter=parallelogramPerimeter;whiteSpace=wrap;html=1;fixedSize=1;" parent="1" vertex="1">
          <mxGeometry x="130" y="1761" width="177" height="60" as="geometry" />
        </mxCell>
        <mxCell id="hEfuXO3asH8lIggXFhz3-64" value="Конец" style="ellipse;whiteSpace=wrap;html=1;" parent="1" vertex="1">
          <mxGeometry x="183.5" y="1851" width="70" height="30" as="geometry" />
        </mxCell>
        <mxCell id="hEfuXO3asH8lIggXFhz3-71" value="нет" style="text;html=1;align=center;verticalAlign=middle;resizable=0;points=[];autosize=1;strokeColor=none;fillColor=none;fontSize=15;" parent="1" vertex="1">
          <mxGeometry x="930" y="1101" width="50" height="30" as="geometry" />
        </mxCell>
        <mxCell id="hEfuXO3asH8lIggXFhz3-78" value="" style="group" parent="1" vertex="1" connectable="0">
          <mxGeometry x="760" y="169" width="210" height="210" as="geometry" />
        </mxCell>
        <mxCell id="hEfuXO3asH8lIggXFhz3-77" value="" style="whiteSpace=wrap;html=1;aspect=fixed;dashed=1;" parent="hEfuXO3asH8lIggXFhz3-78" vertex="1">
          <mxGeometry width="210" height="210" as="geometry" />
        </mxCell>
        <mxCell id="hEfuXO3asH8lIggXFhz3-72" value="&lt;p style=&quot;border-color: var(--border-color); font-family: Consolas; font-size: 13.3333px; margin: 0px;&quot;&gt;delay_one_tick()&lt;br&gt;&lt;/p&gt;" style="ellipse;whiteSpace=wrap;html=1;" parent="hEfuXO3asH8lIggXFhz3-78" vertex="1">
          <mxGeometry x="11.38000000000011" y="20" width="190" height="60" as="geometry" />
        </mxCell>
        <mxCell id="hEfuXO3asH8lIggXFhz3-73" value="&lt;div style=&quot;padding: 0px 0px 0px 2px;&quot;&gt;&lt;div style=&quot;font-family: Consolas; font-size: 10pt;&quot;&gt;&lt;div style=&quot;padding: 0px 0px 0px 2px;&quot;&gt;&lt;div style=&quot;font-size: 10pt;&quot;&gt;&lt;p style=&quot;margin: 0px;&quot;&gt;__NOP()&lt;/p&gt;&lt;/div&gt;&lt;/div&gt;&lt;/div&gt;&lt;/div&gt;" style="rounded=0;whiteSpace=wrap;html=1;align=center;" parent="hEfuXO3asH8lIggXFhz3-78" vertex="1">
          <mxGeometry x="51.38000000000011" y="100" width="110" height="30" as="geometry" />
        </mxCell>
        <mxCell id="hEfuXO3asH8lIggXFhz3-75" style="edgeStyle=orthogonalEdgeStyle;rounded=0;orthogonalLoop=1;jettySize=auto;html=1;exitX=0.5;exitY=1;exitDx=0;exitDy=0;entryX=0.5;entryY=0;entryDx=0;entryDy=0;" parent="hEfuXO3asH8lIggXFhz3-78" source="hEfuXO3asH8lIggXFhz3-72" target="hEfuXO3asH8lIggXFhz3-73" edge="1">
          <mxGeometry relative="1" as="geometry" />
        </mxCell>
        <mxCell id="hEfuXO3asH8lIggXFhz3-74" value="Конец" style="ellipse;whiteSpace=wrap;html=1;" parent="hEfuXO3asH8lIggXFhz3-78" vertex="1">
          <mxGeometry x="70" y="150" width="70" height="30" as="geometry" />
        </mxCell>
        <mxCell id="hEfuXO3asH8lIggXFhz3-76" style="edgeStyle=orthogonalEdgeStyle;rounded=0;orthogonalLoop=1;jettySize=auto;html=1;exitX=0.5;exitY=1;exitDx=0;exitDy=0;entryX=0.5;entryY=0;entryDx=0;entryDy=0;" parent="hEfuXO3asH8lIggXFhz3-78" source="hEfuXO3asH8lIggXFhz3-73" target="hEfuXO3asH8lIggXFhz3-74" edge="1">
          <mxGeometry relative="1" as="geometry" />
        </mxCell>
        <mxCell id="hEfuXO3asH8lIggXFhz3-88" style="edgeStyle=orthogonalEdgeStyle;rounded=0;orthogonalLoop=1;jettySize=auto;html=1;exitX=0.5;exitY=1;exitDx=0;exitDy=0;entryX=0.5;entryY=0;entryDx=0;entryDy=0;" parent="1" source="hEfuXO3asH8lIggXFhz3-79" target="hEfuXO3asH8lIggXFhz3-63" edge="1">
          <mxGeometry relative="1" as="geometry">
            <Array as="points">
              <mxPoint x="464" y="1699" />
              <mxPoint x="219" y="1699" />
            </Array>
          </mxGeometry>
        </mxCell>
        <mxCell id="hEfuXO3asH8lIggXFhz3-79" value="filteredOutData =&amp;nbsp;summAvr&amp;nbsp;/&amp;nbsp;filterSize&lt;span style=&quot;font-family: Consolas; font-size: 13.3333px;&quot;&gt;&lt;br&gt;summAvr = 0&lt;/span&gt;&lt;br&gt;&lt;p style=&quot;border-color: var(--border-color); color: rgb(0, 0, 0); font-family: Consolas; font-size: 13.3333px; font-style: normal; font-variant-ligatures: normal; font-variant-caps: normal; font-weight: 400; letter-spacing: normal; orphans: 2; text-align: center; text-indent: 0px; text-transform: none; widows: 2; word-spacing: 0px; -webkit-text-stroke-width: 0px; background-color: rgb(251, 251, 251); text-decoration-thickness: initial; text-decoration-style: initial; text-decoration-color: initial; margin: 0px;&quot;&gt;countAvr = 0&lt;/p&gt;" style="rounded=0;whiteSpace=wrap;html=1;align=center;" parent="1" vertex="1">
          <mxGeometry x="358.75" y="1599" width="210" height="60" as="geometry" />
        </mxCell>
        <mxCell id="hEfuXO3asH8lIggXFhz3-85" style="edgeStyle=orthogonalEdgeStyle;rounded=0;orthogonalLoop=1;jettySize=auto;html=1;exitX=1;exitY=0.5;exitDx=0;exitDy=0;entryX=0.5;entryY=0;entryDx=0;entryDy=0;" parent="1" source="hEfuXO3asH8lIggXFhz3-80" target="hEfuXO3asH8lIggXFhz3-81" edge="1">
          <mxGeometry relative="1" as="geometry" />
        </mxCell>
        <mxCell id="hEfuXO3asH8lIggXFhz3-86" style="edgeStyle=orthogonalEdgeStyle;rounded=0;orthogonalLoop=1;jettySize=auto;html=1;exitX=0;exitY=0.5;exitDx=0;exitDy=0;entryX=0.5;entryY=0;entryDx=0;entryDy=0;" parent="1" source="hEfuXO3asH8lIggXFhz3-80" target="hEfuXO3asH8lIggXFhz3-79" edge="1">
          <mxGeometry relative="1" as="geometry" />
        </mxCell>
        <mxCell id="hEfuXO3asH8lIggXFhz3-80" value="&lt;p style=&quot;border-color: var(--border-color); font-family: Consolas; font-size: 13.3333px; margin: 0px;&quot;&gt;&lt;/p&gt;countAvr &amp;gt;=&amp;nbsp;&lt;span style=&quot;font-family: Consolas; font-size: 13.3333px; background-color: initial;&quot;&gt;filterSize&lt;/span&gt;" style="rhombus;whiteSpace=wrap;html=1;" parent="1" vertex="1">
          <mxGeometry x="503.55999999999995" y="1469" width="187.13" height="100" as="geometry" />
        </mxCell>
        <mxCell id="hEfuXO3asH8lIggXFhz3-87" style="edgeStyle=orthogonalEdgeStyle;rounded=0;orthogonalLoop=1;jettySize=auto;html=1;exitX=0.5;exitY=1;exitDx=0;exitDy=0;entryX=0.5;entryY=0;entryDx=0;entryDy=0;" parent="1" source="hEfuXO3asH8lIggXFhz3-81" target="hEfuXO3asH8lIggXFhz3-63" edge="1">
          <mxGeometry relative="1" as="geometry">
            <Array as="points">
              <mxPoint x="735" y="1699" />
              <mxPoint x="219" y="1699" />
            </Array>
          </mxGeometry>
        </mxCell>
        <mxCell id="hEfuXO3asH8lIggXFhz3-81" value="&lt;span style=&quot;font-family: Consolas; font-size: 13.3333px;&quot;&gt;summAvr +=&amp;nbsp;&lt;/span&gt;outDataInt16&amp;nbsp;&lt;br&gt;&lt;p style=&quot;border-color: var(--border-color); color: rgb(0, 0, 0); font-family: Consolas; font-size: 13.3333px; font-style: normal; font-variant-ligatures: normal; font-variant-caps: normal; font-weight: 400; letter-spacing: normal; orphans: 2; text-align: center; text-indent: 0px; text-transform: none; widows: 2; word-spacing: 0px; -webkit-text-stroke-width: 0px; background-color: rgb(251, 251, 251); text-decoration-thickness: initial; text-decoration-style: initial; text-decoration-color: initial; margin: 0px;&quot;&gt;countAvr++&lt;/p&gt;" style="rounded=0;whiteSpace=wrap;html=1;align=center;" parent="1" vertex="1">
          <mxGeometry x="650" y="1609" width="170" height="50" as="geometry" />
        </mxCell>
        <mxCell id="hEfuXO3asH8lIggXFhz3-82" value="нет" style="text;html=1;align=center;verticalAlign=middle;resizable=0;points=[];autosize=1;strokeColor=none;fillColor=none;fontSize=15;" parent="1" vertex="1">
          <mxGeometry x="690.69" y="1489" width="50" height="30" as="geometry" />
        </mxCell>
        <mxCell id="hEfuXO3asH8lIggXFhz3-83" value="да" style="text;html=1;align=center;verticalAlign=middle;resizable=0;points=[];autosize=1;strokeColor=none;fillColor=none;fontSize=15;" parent="1" vertex="1">
          <mxGeometry x="466.62" y="1489" width="40" height="30" as="geometry" />
        </mxCell>
      </root>
    </mxGraphModel>
  </diagram>
</mxfile>
